<svg width="24" height="24" viewBox="0 0 24 24" fill="none" xmlns="http://www.w3.org/2000/svg">
<path d="M23.4288 12.2245C23.4288 11.2416 23.3491 10.5244 23.1765 9.78067H11.9535V14.2167H18.5411C18.4084 15.3191 17.6912 16.9793 16.0973 18.0949L16.075 18.2434L19.6235 20.9924L19.8693 21.017C22.1272 18.9317 23.4288 15.8636 23.4288 12.2245Z" fill="#4285F4"/>
<path d="M11.9535 23.9123C15.1809 23.9123 17.8903 22.8498 19.8693 21.017L16.0973 18.0949C15.0879 18.7988 13.7332 19.2903 11.9535 19.2903C8.79247 19.2903 6.1096 17.2051 5.15323 14.323L5.01305 14.3349L1.32326 17.1905L1.27501 17.3246C3.24067 21.2294 7.2783 23.9123 11.9535 23.9123Z" fill="#34A853"/>
<path d="M5.15323 14.323C4.90088 13.5792 4.75484 12.7823 4.75484 11.9589C4.75484 11.1353 4.90088 10.3385 5.13995 9.59471L5.13327 9.43631L1.39724 6.53488L1.27501 6.59302C0.464863 8.2134 0 10.033 0 11.9589C0 13.8847 0.464863 15.7042 1.27501 17.3246L5.15323 14.323Z" fill="#FBBC05"/>
<path d="M11.9535 4.62735C14.198 4.62735 15.7121 5.59691 16.5755 6.40715L19.949 3.11328C17.8771 1.18744 15.1809 0.00537109 11.9535 0.00537109C7.2783 0.00537109 3.24067 2.68824 1.27501 6.59302L5.13995 9.59471C6.1096 6.7126 8.79247 4.62735 11.9535 4.62735Z" fill="#EB4335"/>
</svg>
